<?xml version="1.0" encoding="utf-8"?>
<!-- Generator: Adobe Illustrator 23.0.0, SVG Export Plug-In . SVG Version: 6.00 Build 0)  -->
<svg version="1.1" id="Layer_1" xmlns="http://www.w3.org/2000/svg" xmlns:xlink="http://www.w3.org/1999/xlink" x="0px" y="0px"
	 viewBox="0 0 480 480" style="enable-background:new 0 0 480 480;" xml:space="preserve">
<style type="text/css">
	.st0{fill:url(#SVGID_1_);}
</style>
<linearGradient id="SVGID_1_" gradientUnits="userSpaceOnUse" x1="0" y1="240" x2="480" y2="240">
	<stop  offset="0" style="stop-color:#FFDF15"/>
	<stop  offset="0.9961" style="stop-color:#D4AB00"/>
	<stop  offset="1" style="stop-color:#231F20"/>
</linearGradient>
<path class="st0" d="M448,0c-17.7,0-32,14.3-32,32v74.1C345.9,8.9,210.2-13,113.1,57.1c-37.4,27-65.3,65.2-79.5,109.1
	c-5.4,16.8,3.8,34.9,20.6,40.3s34.9-3.8,40.3-20.6c26-80.4,112.2-124.5,192.5-98.5c31.2,10.1,58.3,29.9,77.4,56.6H320
	c-17.7,0-32,14.3-32,32s14.3,32,32,32h128c17.7,0,32-14.3,32-32V32C480,14.3,465.7,0,448,0z M425.8,273.6
	c-16.8-5.4-34.9,3.8-40.3,20.6c0,0,0,0,0,0c-26,80.4-112.3,124.4-192.6,98.4c-31.2-10.1-58.2-29.9-77.3-56.6H160
	c17.7,0,32-14.3,32-32s-14.3-32-32-32H32c-17.7,0-32,14.3-32,32v144c0,17.7,14.3,32,32,32s32-14.3,32-32v-74.1
	c69.7,97,204.7,119.1,301.7,49.5c37.6-27,65.6-65.5,79.8-109.6C451.9,297,442.6,278.1,425.8,273.6z"/>
</svg>
