<?xml version="1.0" encoding="utf-8"?>
<!-- Generator: Adobe Illustrator 27.7.0, SVG Export Plug-In . SVG Version: 6.00 Build 0)  -->
<svg version="1.1" id="Layer_1" xmlns="http://www.w3.org/2000/svg" xmlns:xlink="http://www.w3.org/1999/xlink" x="0px" y="0px"
	 viewBox="0 0 512 512" style="enable-background:new 0 0 512 512;" xml:space="preserve">
<style type="text/css">
	.st0{fill:#5D5D5D;}
</style>
<g>
	<path class="st0" d="M256,30c30.5,0,60.1,6,88,17.7c26.9,11.4,51.1,27.7,71.8,48.4c20.8,20.8,37.1,44.9,48.4,71.8
		c11.8,27.8,17.7,57.4,17.7,88s-6,60.1-17.7,88c-11.4,26.9-27.7,51.1-48.4,71.8c-20.8,20.8-44.9,37.1-71.8,48.4
		C316.1,476,286.5,482,256,482s-60.1-6-88-17.7c-26.9-11.4-51.1-27.7-71.8-48.4S59.1,370.9,47.7,344C36,316.1,30,286.5,30,256
		s6-60.1,17.7-88c11.4-26.9,27.7-51.1,48.4-71.8C117,75.4,141.1,59.1,168,47.7C195.9,36,225.5,30,256,30 M256,0
		C114.6,0,0,114.6,0,256s114.6,256,256,256s256-114.6,256-256S397.4,0,256,0L256,0z"/>
</g>
<g>
	<g>
		<path class="st0" d="M256,205.7c27.8,0,50.3,22.5,50.3,50.3c0,27.8-22.5,50.3-50.3,50.3c-27.8,0-50.3-22.5-50.3-50.3
			C205.7,228.2,228.2,205.7,256,205.7 M256,177.8c-43.1,0-78.2,35.1-78.2,78.2c0,43.1,35.1,78.2,78.2,78.2
			c43.1,0,78.2-35.1,78.2-78.2C334.2,212.9,299.1,177.8,256,177.8L256,177.8z"/>
	</g>
	<g>
		<path class="st0" d="M322.6,132.6c31.3,0,56.7,25.4,56.7,56.7v133.3c0,31.3-25.4,56.7-56.7,56.7H189.4
			c-31.3,0-56.7-25.4-56.7-56.7V189.4c0-31.3,25.4-56.7,56.7-56.7H322.6 M322.6,104.8H189.4c-46.6,0-84.5,37.9-84.5,84.5v133.3
			c0,46.6,37.9,84.5,84.5,84.5h133.3c46.6,0,84.5-37.9,84.5-84.5V189.4C407.2,142.7,369.3,104.8,322.6,104.8L322.6,104.8z"/>
	</g>
	
		<ellipse transform="matrix(0.2298 -0.9732 0.9732 0.2298 91.4147 463.0299)" class="st0" cx="338.2" cy="173.8" rx="18.4" ry="18.4"/>
</g>
</svg>
