<?xml version="1.0" encoding="utf-8"?>
<!-- Generator: Adobe Illustrator 27.9.0, SVG Export Plug-In . SVG Version: 6.00 Build 0)  -->
<svg version="1.1" id="Layer_1" xmlns="http://www.w3.org/2000/svg" xmlns:xlink="http://www.w3.org/1999/xlink" x="0px" y="0px"
	 width="87.6px" height="10.6px" viewBox="0 0 87.6 10.6" style="enable-background:new 0 0 87.6 10.6;" xml:space="preserve">
<style type="text/css">
	.st0{fill:#000000;}
</style>
<g>
	<path class="st0" d="M67.5,10.2c-0.4,0-0.8-0.1-1.2-0.2c-0.7-0.2-1.4-0.5-2-1c-0.3-0.3-0.7-0.6-0.9-1c-0.2-0.3-0.4-0.5-0.7-0.7
		c-1.9-1-3.3,1-4.7,2c0.4-0.6,0.5-1.4,0.2-2.1c-0.3-0.6-0.9-1-1.5-1c-0.7,0-1.5,0.5-1.3,1.3C55.4,8,56.2,8.5,56.7,8
		c0.2-0.2,0.4-0.8,0-0.8s-0.1,0.5-0.5,0.5c-0.3,0-0.5-0.3-0.4-0.6c0,0,0,0,0,0c0,0,0-0.1,0-0.1c0.1-0.3,0.4-0.4,0.7-0.5
		c0.7,0,1.2,0.5,1.3,1.1c0.1,1.1-0.6,2.1-1.7,2.2c0,0,0,0,0,0h-0.2c-1.6,0.1-3.1-1.1-3.3-2.8c-0.1-0.4-0.1-0.8,0-1.1
		c0.3-0.1,0.5-0.4,0.4-0.8c0,0,0,0,0,0c-0.1-0.3-0.4-0.5-0.7-0.4c0,0,0,0,0,0c-0.3,0.1-0.6,0.4-0.5,0.7c0,0.2,0.2,0.4,0.3,0.4
		c0,0.3-0.1,0.7-0.2,1c-1,2.5-4.3,3.9-6.5,2.1c-1.1-0.9-1.5-2.3-1.2-3.6c0.4-1.3,1.8-2.1,3.1-1.9c1.2,0.2,1.9,1.4,1.7,2.5
		c0,0,0,0,0,0c0,0.2-0.1,0.3-0.2,0.5c-0.3,0.6-1,0.9-1.7,0.8C46.5,7.3,46,6.8,46,6.1c0-0.3,0.2-0.7,0.5-0.8c0.1,0.3,0.4,0.6,0.7,0.5
		c0.5,0,0.9-0.3,1-0.7c-0.1,0.1-0.2,0.1-0.3,0.1c-0.3,0-0.3-0.5-0.8-0.5c-0.2,0-0.5,0-0.7,0.1c-0.3,0.1-0.5,0.3-0.7,0.6
		C45.4,6,45.5,6.7,46,7.3c0.5,0.5,1.1,0.7,1.8,0.6c1.2-0.3,2-1.5,1.7-2.7c0,0,0,0,0,0c0-0.1-0.1-0.3-0.1-0.4
		c-0.6-1.2-1.9-1.9-3.2-1.5c-1.1,0.3-1.9,1.1-2.3,2.1c-0.4-1.1-1.2-1.9-2.3-2.2c-1.3-0.4-2.7,0.3-3.2,1.5c-0.5,1.1,0,2.5,1.1,3
		c0.1,0.1,0.3,0.1,0.4,0.1c0.7,0.2,1.4-0.1,1.8-0.6c0.5-0.5,0.5-1.3,0.2-1.9c-0.2-0.3-0.4-0.5-0.7-0.6c-0.2-0.1-0.5-0.1-0.7-0.1
		c-0.5,0-0.5,0.5-0.8,0.5c-0.1,0-0.2,0-0.3-0.1c0.1,0.4,0.5,0.7,1,0.7c0.3,0,0.6-0.2,0.7-0.5c0.3,0.2,0.5,0.5,0.5,0.8
		c0,0.7-0.5,1.2-1.2,1.3c-0.7,0.1-1.3-0.2-1.7-0.8c-0.5-1.1-0.1-2.4,1-2.9c0.2-0.1,0.4-0.1,0.5-0.2c1.4-0.2,2.7,0.6,3.1,1.9
		c0.3,1.3-0.1,2.7-1.2,3.6c-2.2,1.9-5.6,0.4-6.5-2c-0.1-0.3-0.2-0.7-0.3-1c0.2-0.2,0.2-0.6,0-0.9C35.3,4.9,35,4.9,34.7,5
		c-0.3,0.2-0.4,0.6-0.2,0.9C34.7,6,34.8,6.1,35,6.1c0,0.4,0,0.7,0,1.1c-0.3,1.6-1.7,2.8-3.4,2.7c-1.1,0-2-1-1.9-2.1
		c0-0.1,0-0.1,0-0.2c0.1-0.6,0.7-1.1,1.3-1.1c0.3,0,0.6,0.2,0.7,0.4c0.1,0.3,0,0.6-0.3,0.7h-0.1c-0.4,0-0.2-0.5-0.5-0.5
		s-0.2,0.6,0,0.8c0.5,0.5,1.3,0,1.4-0.6c0-0.7-0.5-1.2-1.2-1.3c0,0-0.1,0-0.1,0c-0.7,0-1.2,0.4-1.5,1c-0.3,0.7-0.2,1.5,0.2,2.2
		c-1.4-0.9-2.8-2.9-4.7-2c-0.3,0.2-0.5,0.4-0.7,0.7c-0.3,0.3-0.6,0.6-0.9,0.9c-0.6,0.5-1.3,0.8-2,1c-0.5,0.1-1.1,0.2-1.6,0.2h-0.5
		L0,10.4l28.5,0.2c0.1,0,0.3-0.1,0.3-0.3s-0.1-0.3-0.3-0.3h-2.5C26,10,26,10,26.1,9.9c0.2-0.3,0.2-0.7,0-1c-0.2-0.3-0.6-0.3-0.9-0.1
		c-0.1,0.1-0.2,0.2-0.2,0.4c0,0.2,0.2,0.4,0.4,0.2s0.1-0.3,0.2-0.3c0.1,0,0.2,0.1,0.3,0.2v0.1c0,0.2-0.1,0.4-0.3,0.5
		c-0.4,0.1-0.8,0-1-0.4c-0.2-0.3-0.2-0.7-0.1-1c0.3-0.8,1.1-1.2,1.8-1c0.9,0.2,1.6,0.7,2.2,1.4c0.6,0.6,1.3,1,2.1,1.3
		c1,0.3,2,0.2,2.9-0.2c1-0.6,1.6-1.5,1.8-2.6c1.2,2.6,4.7,3.9,7,2.1c0.7-0.5,1.2-1.2,1.4-2c0.2,0.8,0.7,1.5,1.3,2
		c2.4,1.8,5.9,0.5,7-2.1c0.2,1.1,0.9,2,1.9,2.6c0.9,0.5,1.9,0.6,2.9,0.3C57.7,10,58.4,9.6,59,9c0.6-0.7,1.4-1.2,2.3-1.4
		c0.8-0.2,1.6,0.2,1.8,1c0.1,0.3,0.1,0.7-0.1,1c-0.2,0.4-0.6,0.5-1,0.4c-0.2-0.1-0.3-0.3-0.3-0.5c0-0.1,0.1-0.2,0.2-0.2c0,0,0,0,0,0
		l0,0c0.2,0,0.1,0.2,0.2,0.3c0.1,0.1,0.3,0,0.3-0.1c0,0,0-0.1,0-0.1c0-0.2-0.1-0.3-0.2-0.4c-0.3-0.2-0.7-0.1-0.9,0.1
		c-0.2,0.3-0.2,0.7,0,1l0.1,0.1h-2.3c-0.1,0-0.3,0.1-0.3,0.3c0,0.1,0.1,0.3,0.3,0.3c0,0,0,0,0,0l28.4-0.2L67.5,10.2z M24.5,10.1
		h-3.9c1.2-0.2,2.4-0.7,3.3-1.4C23.8,9.2,24,9.8,24.5,10.1L24.5,10.1z M63.5,8.9C63.5,8.9,63.5,8.9,63.5,8.9
		c0.9,0.6,1.9,1.1,2.9,1.3H63C63.4,9.8,63.6,9.3,63.5,8.9L63.5,8.9z"/>
	<path class="st0" d="M44.5,2c-0.3,0-0.5,0-0.8,0.2C43.5,2.1,43.3,2,43,2c0.1,0,0.4,0.1,0.5,0.2c0,0.1,0,0.2,0,0.3
		c-0.1,0-0.2,0-0.3,0.1C43,3,43,3.4,43.3,3.6c0,0,0,0,0,0c0,0,0.1,0.1,0.1,0.1c0.1,0,0.2,0.4,0.3,0.4s0.2-0.4,0.3-0.4
		c0.3-0.1,0.5-0.5,0.3-0.9c0-0.1-0.1-0.1-0.1-0.1c-0.1-0.1-0.2-0.1-0.3-0.1c0-0.1,0-0.2,0-0.3C44.1,2.1,44.4,2.1,44.5,2z"/>
	<path class="st0" d="M43.7,1.8c0.2,0,0.4-0.1,0.5-0.3c0,0,0,0,0,0c0-0.1,0-0.1,0-0.2c-0.1-0.4-0.2-0.9-0.4-1.3
		c-0.2,0.4-0.3,0.8-0.4,1.3C43.3,1.5,43.4,1.7,43.7,1.8C43.7,1.8,43.7,1.8,43.7,1.8z"/>
	<path class="st0" d="M45.7,2.6c0.2-0.2,0.2-0.4,0.1-0.5s-0.2,0-0.5,0.2c-0.2,0.3-0.4,0.6-0.6,0.9C45.1,3,45.5,2.8,45.7,2.6z"/>
	<path class="st0" d="M42.7,3.2c-0.2-0.3-0.4-0.6-0.6-0.9c-0.2-0.2-0.5-0.2-0.5-0.1c0,0.2,0,0.3,0.2,0.4C42.1,2.8,42.4,3,42.7,3.2z"
		/>
	<path class="st0" d="M44.9,1.4c0,0-0.2,0-0.2,0c-0.1,0.2-0.2,0.3-0.3,0.5c0.2-0.1,0.3-0.2,0.5-0.3C44.9,1.5,44.9,1.4,44.9,1.4z"/>
	<path class="st0" d="M43.2,1.9c-0.1-0.2-0.2-0.3-0.3-0.5c-0.1-0.1-0.2-0.1-0.2,0s0,0.2,0.1,0.2C42.9,1.7,43.1,1.8,43.2,1.9z"/>
	<path class="st0" d="M45.2,2.1c0.1-0.1,0.2-0.3,0.1-0.3s-0.2,0-0.3,0.1c-0.2,0.2-0.3,0.4-0.4,0.7C44.7,2.4,45,2.2,45.2,2.1z"/>
	<path class="st0" d="M43,2.5c-0.1-0.2-0.3-0.5-0.4-0.7c-0.2-0.1-0.3-0.1-0.3-0.1s0,0.2,0.1,0.3C42.6,2.2,42.8,2.4,43,2.5z"/>
</g>
</svg>
