<?xml version="1.0" encoding="utf-8"?>
<!-- Generator: Adobe Illustrator 23.0.0, SVG Export Plug-In . SVG Version: 6.00 Build 0)  -->
<svg version="1.1" id="Layer_1" xmlns="http://www.w3.org/2000/svg" xmlns:xlink="http://www.w3.org/1999/xlink" x="0px" y="0px"
	 viewBox="0 0 16 16" style="enable-background:new 0 0 16 16;" xml:space="preserve">
<style type="text/css">
	.st0{fill:url(#SVGID_1_);}
	.st1{fill:url(#SVGID_2_);}
	.st2{fill:url(#SVGID_3_);}
	.st3{fill:url(#SVGID_4_);}
</style>
<linearGradient id="SVGID_1_" gradientUnits="userSpaceOnUse" x1="5.3134" y1="6.3121" x2="10.69" y2="6.3121">
	<stop  offset="0" style="stop-color:#FFDF15"/>
	<stop  offset="0.371" style="stop-color:#E9C50A"/>
	<stop  offset="0.7401" style="stop-color:#DAB203"/>
	<stop  offset="0.9961" style="stop-color:#D4AB00"/>
	<stop  offset="1" style="stop-color:#231F20"/>
</linearGradient>
<path class="st0" d="M8,9C7.3,9,6.6,8.7,6.1,8.2l0,0c-1-1.1-1-2.8,0-3.8c1.1-1,2.8-1,3.8,0c0.5,0.5,0.8,1.2,0.8,1.9
	C10.7,7.8,9.5,9,8,9C8,9,8,9,8,9z M7.2,7.1c0.5,0.5,1.2,0.5,1.6,0C9,6.9,9.2,6.6,9.1,6.3C9.2,6,9,5.7,8.8,5.5
	c-0.5-0.4-1.2-0.4-1.6,0C6.7,6,6.7,6.7,7.2,7.1C7.2,7.1,7.2,7.1,7.2,7.1z"/>
<linearGradient id="SVGID_2_" gradientUnits="userSpaceOnUse" x1="7.23" y1="8" x2="14.2026" y2="8">
	<stop  offset="0" style="stop-color:#FFDF15"/>
	<stop  offset="0.371" style="stop-color:#E9C50A"/>
	<stop  offset="0.7401" style="stop-color:#DAB203"/>
	<stop  offset="0.9961" style="stop-color:#D4AB00"/>
	<stop  offset="1" style="stop-color:#231F20"/>
</linearGradient>
<path class="st1" d="M8,15.7c-0.4,0-0.8-0.3-0.8-0.8c0-0.3,0.1-0.5,0.4-0.6c0,0,4.9-3.2,5.1-7.6c0.1-2.6-2-4.7-4.5-4.8
	c0,0-0.1,0-0.1,0c-0.4,0-0.8-0.3-0.8-0.8S7.6,0.3,8,0.3c3.4,0,6.2,2.8,6.2,6.2c0,0.1,0,0.1,0,0.2C14,12,8.6,15.4,8.4,15.6
	C8.3,15.6,8.1,15.7,8,15.7z"/>
<linearGradient id="SVGID_3_" gradientUnits="userSpaceOnUse" x1="2.1431" y1="11.7819" x2="8.7719" y2="11.7819">
	<stop  offset="0" style="stop-color:#FFDF15"/>
	<stop  offset="0.371" style="stop-color:#E9C50A"/>
	<stop  offset="0.7401" style="stop-color:#DAB203"/>
	<stop  offset="0.9961" style="stop-color:#D4AB00"/>
	<stop  offset="1" style="stop-color:#231F20"/>
</linearGradient>
<path class="st2" d="M8,15.7c-0.1,0-0.3,0-0.4-0.1c-2.2-1.5-4-3.6-5.2-6C2.3,9.3,2.3,9.1,2.2,8.9C2.1,8.5,2.3,8,2.7,7.9
	c0.4-0.1,0.8,0.1,1,0.5C3.7,8.6,3.8,8.8,3.9,9c1,2.1,2.6,4,4.6,5.3c0.4,0.2,0.5,0.7,0.2,1c0,0,0,0,0,0C8.5,15.6,8.3,15.7,8,15.7z"/>
<linearGradient id="SVGID_4_" gradientUnits="userSpaceOnUse" x1="5.2837" y1="0.31" x2="5.2837" y2="7.43">
	<stop  offset="0" style="stop-color:#FFDF15"/>
	<stop  offset="0.371" style="stop-color:#E9C50A"/>
	<stop  offset="0.7401" style="stop-color:#DAB203"/>
	<stop  offset="0.9961" style="stop-color:#D4AB00"/>
	<stop  offset="1" style="stop-color:#231F20"/>
</linearGradient>
<path class="st3" d="M2.6,7.4c-0.4,0-0.8-0.3-0.8-0.7c-0.1-3.4,2.6-6.3,6-6.4c0.1,0,0.1,0,0.2,0c0.4,0,0.8,0.3,0.8,0.8
	S8.4,1.8,8,1.8c-2.6,0-4.7,2.1-4.7,4.7c0,0,0,0.1,0,0.1C3.4,7.1,3,7.4,2.6,7.4L2.6,7.4z"/>
</svg>
