<?xml version="1.0" encoding="utf-8"?>
<!-- Generator: Adobe Illustrator 23.0.0, SVG Export Plug-In . SVG Version: 6.00 Build 0)  -->
<svg version="1.1" id="Layer_1" xmlns="http://www.w3.org/2000/svg" xmlns:xlink="http://www.w3.org/1999/xlink" x="0px" y="0px"
	 viewBox="0 0 16 16" style="enable-background:new 0 0 16 16;" xml:space="preserve">
<style type="text/css">
	.st0{fill:url(#SVGID_1_);}
	.st1{fill:url(#SVGID_2_);}
	.st2{fill:url(#SVGID_3_);}
	.st3{fill:url(#SVGID_4_);}
</style>
<linearGradient id="SVGID_1_" gradientUnits="userSpaceOnUse" x1="0.8522" y1="8.4968" x2="15.1752" y2="8.4968">
	<stop  offset="0" style="stop-color:#FFDF15"/>
	<stop  offset="0.371" style="stop-color:#E9C50A"/>
	<stop  offset="0.7401" style="stop-color:#DAB203"/>
	<stop  offset="0.9961" style="stop-color:#D4AB00"/>
	<stop  offset="1" style="stop-color:#231F20"/>
</linearGradient>
<path class="st0" d="M8,11.4c-0.2,0-0.3,0-0.4-0.1L1.2,7C0.9,6.8,0.7,6.3,1,5.9c0,0,0,0,0-0.1c0.2-0.3,0.7-0.4,1.1-0.2L8,9.7l6-4.1
	c0.4-0.2,0.8-0.1,1.1,0.2c0.2,0.4,0.1,0.8-0.3,1.1l0,0l-6.4,4.3C8.3,11.4,8.2,11.4,8,11.4z"/>
<linearGradient id="SVGID_2_" gradientUnits="userSpaceOnUse" x1="0.8699" y1="13.3231" x2="5.6532" y2="13.3231">
	<stop  offset="0" style="stop-color:#FFDF15"/>
	<stop  offset="0.371" style="stop-color:#E9C50A"/>
	<stop  offset="0.7401" style="stop-color:#DAB203"/>
	<stop  offset="0.9961" style="stop-color:#D4AB00"/>
	<stop  offset="1" style="stop-color:#231F20"/>
</linearGradient>
<path class="st1" d="M1.6,15.2c-0.3,0-0.5-0.1-0.6-0.3c-0.2-0.3-0.1-0.8,0.2-1.1l3.3-2.2c0.3-0.2,0.8-0.2,1.1,0.2c0,0,0,0,0,0
	c0.2,0.3,0.2,0.8-0.2,1c0,0,0,0,0,0l-3.2,2.2C2,15.2,1.8,15.2,1.6,15.2z"/>
<linearGradient id="SVGID_3_" gradientUnits="userSpaceOnUse" x1="10.3209" y1="13.3149" x2="15.145" y2="13.3149">
	<stop  offset="0" style="stop-color:#FFDF15"/>
	<stop  offset="0.371" style="stop-color:#E9C50A"/>
	<stop  offset="0.7401" style="stop-color:#DAB203"/>
	<stop  offset="0.9961" style="stop-color:#D4AB00"/>
	<stop  offset="1" style="stop-color:#231F20"/>
</linearGradient>
<path class="st2" d="M14.4,15.2c-0.2,0-0.3,0-0.4-0.1l-3.4-2.3c-0.3-0.3-0.4-0.8-0.1-1.1c0.2-0.3,0.6-0.3,0.9-0.2l3.4,2.3
	c0.3,0.2,0.4,0.7,0.2,1.1C14.9,15.1,14.6,15.2,14.4,15.2z"/>
<linearGradient id="SVGID_4_" gradientUnits="userSpaceOnUse" x1="0.3889" y1="7.9995" x2="15.6501" y2="7.9995">
	<stop  offset="0" style="stop-color:#FFDF15"/>
	<stop  offset="0.371" style="stop-color:#E9C50A"/>
	<stop  offset="0.7401" style="stop-color:#DAB203"/>
	<stop  offset="0.9961" style="stop-color:#D4AB00"/>
	<stop  offset="1" style="stop-color:#231F20"/>
</linearGradient>
<path class="st3" d="M13.3,15.6H2.7c-1.3,0-2.3-1-2.3-2.3v-7c0-0.5,0.2-1,0.6-1.3l6.6-4.5c0.3-0.2,0.6-0.2,0.9,0L15,5.1l0,0
	c0.4,0.3,0.7,0.8,0.6,1.3v7C15.7,14.6,14.6,15.6,13.3,15.6C13.4,15.6,13.4,15.6,13.3,15.6z M8,2.1L1.9,6.3v7c0,0.4,0.3,0.8,0.8,0.8
	h0h10.7c0.4,0,0.8-0.3,0.8-0.8l0,0v-7L8,2.1z"/>
</svg>
