<?xml version="1.0" encoding="utf-8"?>
<!-- Generator: Adobe Illustrator 23.0.0, SVG Export Plug-In . SVG Version: 6.00 Build 0)  -->
<svg version="1.1" id="Layer_1" xmlns="http://www.w3.org/2000/svg" xmlns:xlink="http://www.w3.org/1999/xlink" x="0px" y="0px"
	 viewBox="0 0 16 16" style="enable-background:new 0 0 16 16;" xml:space="preserve">
<style type="text/css">
	.st0{fill:url(#SVGID_1_);}
	.st1{fill:url(#SVGID_2_);}
	.st2{fill:url(#SVGID_3_);}
	.st3{fill:url(#SVGID_4_);}
	.st4{fill:url(#SVGID_5_);}
	.st5{fill:url(#SVGID_6_);}
	.st6{fill:url(#SVGID_7_);}
	.st7{fill:url(#SVGID_8_);}
	.st8{fill:url(#SVGID_9_);}
</style>
<linearGradient id="SVGID_1_" gradientUnits="userSpaceOnUse" x1="8" y1="15.58" x2="8" y2="1.88">
	<stop  offset="0" style="stop-color:#FFDF15"/>
	<stop  offset="0.371" style="stop-color:#E9C50A"/>
	<stop  offset="0.7401" style="stop-color:#DAB203"/>
	<stop  offset="0.9961" style="stop-color:#D4AB00"/>
	<stop  offset="1" style="stop-color:#231F20"/>
</linearGradient>
<path class="st0" d="M14,15.6H2c-1.1,0-2-0.9-2-2V3.9c0-1.1,0.9-2,2-2h8.8c0.4,0,0.8,0.4,0.8,0.8s-0.4,0.8-0.8,0.8H2
	c-0.2,0-0.4,0.2-0.4,0.4c0,0,0,0,0,0v9.7C1.6,13.8,1.8,14,2,14c0,0,0,0,0,0h12c0.2,0,0.4-0.2,0.4-0.4V3.9c0-0.2-0.2-0.4-0.4-0.4
	c0,0,0,0,0,0h-0.7c-0.4,0-0.8-0.4-0.8-0.8c0-0.4,0.4-0.8,0.8-0.8H14c1.1,0,2,0.9,2,2l0,0v9.7C16,14.7,15.1,15.6,14,15.6
	C14,15.6,14,15.6,14,15.6z"/>
<linearGradient id="SVGID_2_" gradientUnits="userSpaceOnUse" x1="11.09" y1="5.04" x2="11.09" y2="0.42">
	<stop  offset="0" style="stop-color:#FFDF15"/>
	<stop  offset="0.371" style="stop-color:#E9C50A"/>
	<stop  offset="0.7401" style="stop-color:#DAB203"/>
	<stop  offset="0.9961" style="stop-color:#D4AB00"/>
	<stop  offset="1" style="stop-color:#231F20"/>
</linearGradient>
<path class="st1" d="M11.1,0.4L11.1,0.4c0.4,0,0.8,0.4,0.8,0.8v3c0,0.4-0.4,0.8-0.8,0.8l0,0c-0.4,0-0.8-0.4-0.8-0.8v-3
	C10.3,0.8,10.6,0.4,11.1,0.4z"/>
<linearGradient id="SVGID_3_" gradientUnits="userSpaceOnUse" x1="4.93" y1="5.04" x2="4.93" y2="0.42">
	<stop  offset="0" style="stop-color:#FFDF15"/>
	<stop  offset="0.371" style="stop-color:#E9C50A"/>
	<stop  offset="0.7401" style="stop-color:#DAB203"/>
	<stop  offset="0.9961" style="stop-color:#D4AB00"/>
	<stop  offset="1" style="stop-color:#231F20"/>
</linearGradient>
<path class="st2" d="M4.9,0.4L4.9,0.4c0.4,0,0.8,0.4,0.8,0.8v3C5.7,4.7,5.4,5,4.9,5h0C4.5,5,4.1,4.7,4.1,4.2v-3
	C4.1,0.8,4.5,0.4,4.9,0.4z"/>
<linearGradient id="SVGID_4_" gradientUnits="userSpaceOnUse" x1="4.935" y1="8.67" x2="4.935" y2="7.1598">
	<stop  offset="0" style="stop-color:#FFDF15"/>
	<stop  offset="0.371" style="stop-color:#E9C50A"/>
	<stop  offset="0.7401" style="stop-color:#DAB203"/>
	<stop  offset="0.9961" style="stop-color:#D4AB00"/>
	<stop  offset="1" style="stop-color:#231F20"/>
</linearGradient>
<path class="st3" d="M4.9,8.7c-0.4,0-0.8-0.3-0.8-0.8c0,0,0,0,0,0l0,0c0-0.4,0.5-0.8,0.9-0.7c0.4,0,0.7,0.3,0.7,0.7
	C5.7,8.3,5.4,8.7,4.9,8.7z"/>
<linearGradient id="SVGID_5_" gradientUnits="userSpaceOnUse" x1="4.935" y1="11.8" x2="4.935" y2="10.1001">
	<stop  offset="0" style="stop-color:#FFDF15"/>
	<stop  offset="0.371" style="stop-color:#E9C50A"/>
	<stop  offset="0.7401" style="stop-color:#DAB203"/>
	<stop  offset="0.9961" style="stop-color:#D4AB00"/>
	<stop  offset="1" style="stop-color:#231F20"/>
</linearGradient>
<path class="st4" d="M4.9,11.8c-0.4,0-0.8-0.4-0.8-0.8l0,0l0,0c0-0.4,0.3-0.8,0.7-0.9s0.8,0.3,0.9,0.7c0,0.1,0,0.1,0,0.2
	C5.7,11.4,5.4,11.8,4.9,11.8z"/>
<linearGradient id="SVGID_6_" gradientUnits="userSpaceOnUse" x1="8.0154" y1="8.6802" x2="8.0154" y2="7.0821">
	<stop  offset="0" style="stop-color:#FFDF15"/>
	<stop  offset="0.371" style="stop-color:#E9C50A"/>
	<stop  offset="0.7401" style="stop-color:#DAB203"/>
	<stop  offset="0.9961" style="stop-color:#D4AB00"/>
	<stop  offset="1" style="stop-color:#231F20"/>
</linearGradient>
<path class="st5" d="M8,8.7c-0.2,0-0.4-0.1-0.6-0.2l0,0c-0.3-0.3-0.3-0.8,0-1.1C7.8,7,8.3,7,8.6,7.3c0,0,0,0,0,0
	c0.3,0.3,0.3,0.8,0,1.1C8.4,8.6,8.2,8.7,8,8.7z"/>
<linearGradient id="SVGID_7_" gradientUnits="userSpaceOnUse" x1="8.0121" y1="11.8" x2="8.0121" y2="10.2064">
	<stop  offset="0" style="stop-color:#FFDF15"/>
	<stop  offset="0.371" style="stop-color:#E9C50A"/>
	<stop  offset="0.7401" style="stop-color:#DAB203"/>
	<stop  offset="0.9961" style="stop-color:#D4AB00"/>
	<stop  offset="1" style="stop-color:#231F20"/>
</linearGradient>
<path class="st6" d="M8,11.8c-0.2,0-0.4-0.1-0.6-0.2l0,0c-0.3-0.3-0.3-0.8,0-1.1c0.3-0.3,0.8-0.3,1.1,0c0.3,0.3,0.3,0.8,0,1.1
	C8.4,11.7,8.2,11.8,8,11.8z"/>
<linearGradient id="SVGID_8_" gradientUnits="userSpaceOnUse" x1="11.09" y1="8.67" x2="11.09" y2="7.08">
	<stop  offset="0" style="stop-color:#FFDF15"/>
	<stop  offset="0.371" style="stop-color:#E9C50A"/>
	<stop  offset="0.7401" style="stop-color:#DAB203"/>
	<stop  offset="0.9961" style="stop-color:#D4AB00"/>
	<stop  offset="1" style="stop-color:#231F20"/>
</linearGradient>
<path class="st7" d="M11.1,8.7c-0.4,0-0.8-0.3-0.8-0.8c0,0,0,0,0,0l0,0c0-0.4,0.4-0.8,0.8-0.8s0.8,0.4,0.8,0.8
	C11.9,8.3,11.5,8.7,11.1,8.7z"/>
<linearGradient id="SVGID_9_" gradientUnits="userSpaceOnUse" x1="11.09" y1="11.81" x2="11.09" y2="10.21">
	<stop  offset="0" style="stop-color:#FFDF15"/>
	<stop  offset="0.371" style="stop-color:#E9C50A"/>
	<stop  offset="0.7401" style="stop-color:#DAB203"/>
	<stop  offset="0.9961" style="stop-color:#D4AB00"/>
	<stop  offset="1" style="stop-color:#231F20"/>
</linearGradient>
<path class="st8" d="M11.1,11.8c-0.4,0-0.8-0.4-0.8-0.8l0,0l0,0c0-0.4,0.4-0.8,0.8-0.8c0.4,0,0.8,0.4,0.8,0.8
	C11.9,11.5,11.5,11.8,11.1,11.8L11.1,11.8z"/>
</svg>
