<?xml version="1.0" encoding="utf-8"?>
<!-- Generator: Adobe Illustrator 23.0.0, SVG Export Plug-In . SVG Version: 6.00 Build 0)  -->
<svg version="1.1" id="Layer_1" xmlns="http://www.w3.org/2000/svg" xmlns:xlink="http://www.w3.org/1999/xlink" x="0px" y="0px"
	 viewBox="0 0 16 16" style="enable-background:new 0 0 16 16;" xml:space="preserve">
<style type="text/css">
	.st0{fill:url(#SVGID_1_);}
	.st1{fill:url(#SVGID_2_);}
</style>
<linearGradient id="SVGID_1_" gradientUnits="userSpaceOnUse" x1="7.9903" y1="9.7396" x2="7.9903" y2="0.3202">
	<stop  offset="0" style="stop-color:#FFDF15"/>
	<stop  offset="0.9961" style="stop-color:#D4AB00"/>
	<stop  offset="1" style="stop-color:#231F20"/>
</linearGradient>
<path class="st0" d="M8,9.7C5.4,9.7,3.3,7.6,3.3,5c0-2.6,2.1-4.7,4.7-4.7c2.6,0,4.7,2.1,4.7,4.7C12.7,7.6,10.6,9.7,8,9.7L8,9.7z
	 M8,1.9C6.3,1.9,4.9,3.3,4.9,5S6.3,8.1,8,8.1s3.1-1.4,3.1-3.1v0C11.1,3.3,9.7,1.9,8,1.9z"/>
<linearGradient id="SVGID_2_" gradientUnits="userSpaceOnUse" x1="7.9975" y1="8.12" x2="7.9975" y2="15.7599">
	<stop  offset="0" style="stop-color:#FFDF15"/>
	<stop  offset="0.9961" style="stop-color:#D4AB00"/>
	<stop  offset="1" style="stop-color:#231F20"/>
</linearGradient>
<path class="st1" d="M14.9,15.7c-0.4,0-0.8-0.4-0.8-0.8c0,0,0,0,0,0c0-2.8-2.3-5.1-5.1-5.1H7.1c-2.8,0-5.1,2.3-5.1,5.1
	c0,0.4-0.3,0.8-0.7,0.9c-0.4,0-0.8-0.3-0.9-0.7c0-0.1,0-0.1,0-0.2c0-3.7,3-6.7,6.7-6.7h1.9c3.7,0,6.7,3,6.7,6.7
	C15.7,15.3,15.3,15.7,14.9,15.7L14.9,15.7z"/>
</svg>
