<?xml version="1.0" encoding="utf-8"?>
<!-- Generator: Adobe Illustrator 25.4.1, SVG Export Plug-In . SVG Version: 6.00 Build 0)  -->
<svg version="1.1" id="Layer_1" xmlns="http://www.w3.org/2000/svg" xmlns:xlink="http://www.w3.org/1999/xlink" x="0px" y="0px"
	 viewBox="0 0 512 512" style="enable-background:new 0 0 512 512;" xml:space="preserve">
<style type="text/css">
	.st0{fill:#41A5EE;}
</style>
<g>
	<path class="st0" d="M480.2,361.1c-26.2-37-80.9-86.1-139.7-39.1c-8.5,6.8-17.7,14.5-25.1,20.8c-9.2,7.8-22.1,9.4-32.9,4
		c-50.7-25.5-91.8-66.7-117.4-117.4c-5.4-10.8-3.8-23.8,4-32.9c6.3-7.4,14-16.6,20.8-25.1c47-58.9-2.1-113.6-39-139.7
		c-23.8-16.8-68.8-25.3-114,19.8c-83.1,83.1-14.3,227.3,91.1,332.3c105,105.5,249.2,174.3,332.3,91.1
		C505.5,429.9,497.1,385,480.2,361.1L480.2,361.1z"/>
	<path class="st0" d="M447.3,64.7C370.8-11.7,281,0.6,277.2,0.9c-13.4,0.9-23.6,12.4-22.8,25.9c0.9,13.4,12.4,23.6,25.9,22.8
		c0.7,0,80.5-2.4,132.6,49.7c52.1,52.1,49.6,131.8,49.6,132.5c-0.1,0.9-0.2,1.8-0.2,2.6c-0.1,13.5,10.7,24.5,24.2,24.6
		c13.5,0.1,24.5-10.7,24.6-24.2C511.4,231,523.7,141.2,447.3,64.7L447.3,64.7z"/>
	<path class="st0" d="M363.1,228.1c-0.5,13.5,9.9,24.8,23.4,25.4c13.5,0.5,24.8-9.9,25.4-23.4c2.5-35.1-10.4-69.6-35.4-94.5
		c-24.8-25-59.3-37.9-94.5-35.4c-0.4,0-0.8,0-1.2,0.1c-13.4,1.2-23.3,13.1-22.1,26.5c1.2,13.4,13.1,23.3,26.5,22.1
		c3.3-0.2,6.7-0.2,10,0c40.3,2.8,70.8,37.7,68,78C363.1,227.3,363.1,227.7,363.1,228.1z"/>
</g>
</svg>
