<?xml version="1.0" encoding="utf-8"?>
<!-- Generator: Adobe Illustrator 25.4.1, SVG Export Plug-In . SVG Version: 6.00 Build 0)  -->
<svg version="1.1" id="Layer_1" xmlns="http://www.w3.org/2000/svg" xmlns:xlink="http://www.w3.org/1999/xlink" x="0px" y="0px"
	 viewBox="0 0 512 512" style="enable-background:new 0 0 512 512;" xml:space="preserve">
<style type="text/css">
	.st0{fill-rule:evenodd;clip-rule:evenodd;fill:#FFFFFF;}
	.st1{fill-rule:evenodd;clip-rule:evenodd;fill:#00B950;}
</style>
<g>
	<path class="st0" d="M222.5,17.8l104.4,18c0,0,110.2,38.3,127.6,94.6s90.8,278.9-116,336.7S122,451.3,122,451.3l-85,15.7l21.3-87.1
		c0,0-83.1-225.7,40.6-293.9S222.5,17.8,222.5,17.8z"/>
	<g>
		<path class="st1" d="M130.1,434.8c6-1.7,12.4-0.8,17.7,2.4c100.1,59.6,229.5,26.8,289.1-73.2s26.8-229.5-73.2-289.1
			S134.2,48.1,74.6,148.2C34.9,214.7,35,297.7,74.7,364.2c3.2,5.3,4.1,11.7,2.4,17.6C70.9,403.8,56,456,56,456
			S108.3,441.1,130.1,434.8L130.1,434.8z M36.2,386.4c-72-121.4-32-278.2,89.4-350.2s278.2-32,350.2,89.4s32,278.2-89.4,350.2
			c-80.4,47.7-180.4,47.7-260.8,0c0,0-70.9,20.2-105.9,30.3c-5.9,1.7-12.1-1.7-13.7-7.7c-0.6-2-0.6-4.1,0-6.1
			C16,457.3,36.2,386.4,36.2,386.4z"/>
		<path class="st1" d="M133.6,187c7.1,102.8,88.6,184.9,191.4,192.8h0c16.1,1.2,31.9-4.6,43.3-16l7.8-7.8c3.7-3.7,5.7-8.6,5.7-13.8
			v-16.5c0-4.2-2.4-8.1-6.1-9.9c-11.7-5.8-37.1-18.5-49.5-24.8c-4.3-2.1-9.4-1.3-12.8,2.1c-6.2,6.2-16,16-21.6,21.6
			c-2.6,2.6-6.4,3.8-10,3l-0.1,0c-44-8.8-78.4-43.2-87.2-87.2l0-0.1c-0.7-3.6,0.4-7.4,3-10c5.5-5.6,15.4-15.4,21.6-21.6
			c3.4-3.4,4.2-8.6,2.1-12.8c-6.2-12.4-18.9-37.8-24.8-49.5c-1.9-3.8-5.7-6.1-9.9-6.1h-14c-6.7,0-13.1,2.9-17.6,7.8
			c-2.2,2.5-4.8,5.3-7.4,8.2c-9.8,10.9-14.8,25.3-13.8,39.9C133.5,186.5,133.5,186.7,133.6,187L133.6,187z"/>
	</g>
</g>
</svg>
